<svg  viewBox="0 0 24 24" xmlns="http://www.w3.org/2000/svg">
  <path fill-rule="evenodd" d="M20.3292112,2 C21.2519624,2 22,2.74752185 22,3.67078882 L22,20.3292112 C22,21.2519624 21.2524781,22 20.3292112,22 L3.67078882,22 C2.74803764,22 2,21.2524781 2,20.3292112 L2,3.67078882 C2,2.74803764 2.74752185,2 3.67078882,2 L20.3292112,2 Z M15.51875,9.5 C14.0993287,9.5 13.128125,10.127356 12.6956992,10.8562567 L12.625,10.9858333 L12.625,9.625 L9.91666667,9.625 L9.91666667,19.2083333 L12.8333333,19.2083333 L12.8333333,14.56625 C12.8333333,13.0104167 13.40625,12.0208333 14.7833333,12.0208333 C15.7330797,12.0208333 16.1315784,12.8606664 16.1644352,14.3580086 L16.1666667,14.56625 L16.1666667,19.2083333 L19.0833333,19.2083333 L19.0833333,13.9154167 C19.0833333,11.0575 18.3995833,9.5 15.51875,9.5 Z M7.83333333,9.5 L4.91666667,9.5 L4.91666667,19.0833333 L7.83333333,19.0833333 L7.83333333,9.5 Z M6.375,4.5 C5.33958333,4.5 4.5,5.33958333 4.5,6.375 C4.5,7.41041667 5.33958333,8.25 6.375,8.25 C7.41041667,8.25 8.25,7.41041667 8.25,6.375 C8.25,5.33958333 7.41041667,4.5 6.375,4.5 Z"/>
</svg>
