<?xml version="1.0" encoding="iso-8859-1"?>
<!-- Generator: Adobe Illustrator 18.1.1, SVG Export Plug-In . SVG Version: 6.00 Build 0)  -->
<svg version="1.1" id="Capa_1" xmlns="http://www.w3.org/2000/svg" xmlns:xlink="http://www.w3.org/1999/xlink" x="0px" y="0px"
	 viewBox="0 0 30.986 30.986" style="enable-background:new 0 0 30.986 30.986;" xml:space="preserve">
<g>
	<path d="M11.013,18.685V2.071c0-0.781-0.635-1.417-1.418-1.417H1.416C0.632,0.654,0,1.29,0,2.071v16.613
		c0,0.78,0.632,1.414,1.416,1.414h8.179C10.378,20.098,11.013,19.465,11.013,18.685z M8.662,1.542c0.203,0,0.365,0.161,0.365,0.361
		c0,0.199-0.162,0.363-0.365,0.363c-0.198,0-0.36-0.164-0.36-0.363C8.302,1.703,8.463,1.542,8.662,1.542z M3.609,1.679h3.794v0.414
		H3.609V1.679z M1.061,15.606V3.045h8.893v12.562H1.061V15.606z M5.506,18.701c-0.499,0-0.903-0.403-0.903-0.903
		s0.404-0.903,0.903-0.903s0.903,0.404,0.903,0.903C6.409,18.298,6.004,18.701,5.506,18.701z"/>
	<polygon points="21.618,12.246 23.398,12.246 23.398,5.716 23.398,3.937 21.618,3.937 12.833,3.937 12.833,5.716 21.618,5.716 	"/>
	<polygon points="6.048,21.297 4.268,21.297 4.268,25.568 4.268,27.347 6.048,27.347 11.446,27.347 11.446,25.568 6.048,25.568 	"/>
	<path d="M29.787,13.204H14.188h-1.201v1.208v11.082v1.217h7.18l-0.014,2.924l-1.795,0.009v0.688h1.814H23.8h1.814v-0.688
		l-1.824-0.01V26.71h7.196v-1.217V14.412v-1.208H29.787z M29.986,25.522H14.179V14.465h15.807V25.522z"/>
	<g>
	</g>
	<g>
	</g>
	<g>
	</g>
	<g>
	</g>
	<g>
	</g>
	<g>
	</g>
	<g>
	</g>
	<g>
	</g>
	<g>
	</g>
	<g>
	</g>
	<g>
	</g>
	<g>
	</g>
	<g>
	</g>
	<g>
	</g>
	<g>
	</g>
</g>
<g>
</g>
<g>
</g>
<g>
</g>
<g>
</g>
<g>
</g>
<g>
</g>
<g>
</g>
<g>
</g>
<g>
</g>
<g>
</g>
<g>
</g>
<g>
</g>
<g>
</g>
<g>
</g>
<g>
</g>
</svg>
