<svg xmlns="http://www.w3.org/2000/svg" xmlns:xlink="http://www.w3.org/1999/xlink" viewBox="0 0 177 23" version="1.1" width="100px" height="13px">
    <!-- Generator: Sketch 52.6 (67491) - http://www.bohemiancoding.com/sketch -->
    <title>oracle</title>
    <desc>Created with Sketch.</desc>
    <g id="oracle" stroke="none" stroke-width="1" fill="none" fill-rule="evenodd" fill-color-id="-1" stroke-color-id="-1" recolor-fill="true" recolor-stroke="true">
        <g fill="#FF0000FF" fill-color-id="0" stroke-color-id="-1" recolor-fill="true" recolor-stroke="true">
            <path d="M123.463,0.484 L127.074,0.484 L127.074,18.984 L142.729,18.984 L140.43,22.598 L123.463,22.598 L123.463,0.484 Z M95.109,22.598 L81.753,1.524 C80.932,0.156 78.743,0.156 77.812,1.579 L64.566,22.598 L68.945,22.598 L72.941,16.248 L81.48,16.248 L83.725,12.635 L75.186,12.635 L79.839,5.356 L90.732,22.598 L95.109,22.598 Z M103.236,0.491 C97.134,0.491 93.117,5.438 93.117,11.541 C93.117,17.643 97.135,22.592 103.236,22.592 L118.074,22.574 L120.396,18.992 L103.345,18.992 C99.232,18.992 96.825,15.656 96.825,11.541 C96.825,7.426 99.231,4.09 103.345,4.09 L118.534,4.09 L120.776,0.48 L103.236,0.491 Z M10.624,4.09 L26.278,4.09 C30.393,4.09 32.799,7.426 32.799,11.541 C32.799,15.656 30.394,18.992 26.278,18.992 L10.624,18.992 C6.509,18.992 4.104,15.656 4.104,11.541 C4.104,7.426 6.509,4.09 10.624,4.09 Z M10.624,0.491 C4.521,0.491 0.504,5.438 0.504,11.541 C0.504,17.643 4.521,22.592 10.624,22.592 L26.278,22.592 C32.381,22.592 36.398,17.643 36.398,11.541 C36.398,5.438 32.381,0.491 26.278,0.491 L10.624,0.491 Z M146.588,13.293 C147.176,16.563 149.426,18.992 152.938,18.992 L169.989,18.992 L167.665,22.574 L152.829,22.592 C146.725,22.592 142.71,17.643 142.71,11.541 C142.71,5.438 146.726,0.491 152.829,0.491 L170.368,0.481 L168.128,4.091 L152.939,4.091 C149.476,4.091 147.216,6.479 146.589,9.681 L168.019,9.681 L165.72,13.294 L146.588,13.294 L146.588,13.293 Z M56.821,13.613 C60.3998885,13.5505123 63.2684443,10.6314339 63.2684443,7.052 C63.2684443,3.47256606 60.3998885,0.553487722 56.821,0.491 L38.402,0.483 L38.402,22.597 L42.453,22.597 L42.453,4.091 L56.821,4.091 C58.4563151,4.091 59.782,5.41668486 59.782,7.052 C59.782,8.68731514 58.4563151,10.013 56.821,10.013 L45.299,10.013 L58.297,22.572 L63.526,22.572 L54.221,13.621 L56.821,13.613 Z M174.152,0.504 C175.091,0.504 175.834,1.246 175.834,2.23 C175.834,3.23 175.092,3.966 174.152,3.966 C173.201,3.966 172.461,3.23 172.461,2.23 C172.461,1.246 173.201,0.504 174.152,0.504 L174.152,0.158 C173.009,0.158 172.043,1.037 172.043,2.229 C172.043,3.433 173.01,4.312 174.152,4.312 C175.285,4.312 176.252,3.433 176.252,2.229 C176.252,1.037 175.285,0.158 174.152,0.158 L174.152,0.504 Z" id="Shape" fill-rule="nonzero" fill-color-id="0" stroke-color-id="-1" recolor-fill="true" recolor-stroke="true" fill="#FF0000FF"/>
            <path d="M173.713,1.345 L174.209,1.345 C174.461,1.345 174.73,1.4 174.73,1.697 C174.73,2.065 174.455,2.088 174.146,2.088 L173.712,2.088 L173.712,2.396 L174.13,2.396 L174.763,3.435 L175.169,3.435 L174.487,2.38 C174.839,2.336 175.108,2.15 175.108,1.721 C175.108,1.248 174.827,1.039 174.262,1.039 L173.348,1.039 L173.348,3.435 L173.711,3.435 L173.711,1.345 L173.713,1.345 Z" id="Path" fill-color-id="0" stroke-color-id="-1" recolor-fill="true" recolor-stroke="true" fill="#FF0000FF"/>
        </g>
    </g>
</svg>