<svg xmlns="http://www.w3.org/2000/svg" xmlns:xlink="http://www.w3.org/1999/xlink" viewBox="0 0 2491 805" version="1.1" width="1000px" height="324px">
    <!-- Generator: Sketch 52.6 (67491) - http://www.bohemiancoding.com/sketch -->
    <title>reddit</title>
    <desc>Created with Sketch.</desc>
    <g id="Page-1" stroke="none" stroke-width="1" fill="none" fill-rule="evenodd" fill-color-id="-1" stroke-color-id="-1" recolor-fill="true" recolor-stroke="true">
        <g id="reddit" fill-color-id="-1" stroke-color-id="-1" recolor-fill="true" recolor-stroke="true">
            <g id="Group" fill-color-id="-1" stroke-color-id="-1" recolor-fill="true" recolor-stroke="true">
                <circle id="Oval" fill="#FF4500FF" cx="402.6" cy="402.6" r="402.3" fill-color-id="2" stroke-color-id="-1" recolor-fill="true" recolor-stroke="true"/>
                <path d="M670.9,402.6 C669.7,370.2 642.5,344.9 610,346 C595.6,346.5 581.9,352.4 571.5,362.3 C525.7,331.1 471.9,314 416.6,312.8 L442.7,187.3 L528.8,205.4 C531.2,227.5 551,243.5 573.1,241.1 C595.2,238.7 611.2,218.9 608.8,196.8 C606.4,174.7 586.6,158.7 564.5,161.1 C551.8,162.4 540.4,169.8 534.1,180.8 L435.5,161.1 C428.8,159.6 422.1,163.8 420.6,170.6 C420.6,170.7 420.6,170.7 420.6,170.8 L390.9,310.4 C334.9,311.3 280.4,328.5 234,359.9 C210.4,337.7 173.2,338.8 151,362.5 C128.8,386.1 129.9,423.3 153.6,445.5 C158.2,449.8 163.5,453.5 169.4,456.1 C169,462 169,467.9 169.4,473.8 C169.4,563.9 274.4,637.2 403.9,637.2 C533.4,637.2 638.4,564 638.4,473.8 C638.8,467.9 638.8,462 638.4,456.1 C658.6,446 671.3,425.2 670.9,402.6 Z M268.6,442.9 C268.6,420.7 286.7,402.6 308.9,402.6 C331.1,402.6 349.2,420.7 349.2,442.9 C349.2,465.1 331.1,483.2 308.9,483.2 C286.6,483 268.6,465.1 268.6,442.9 Z M502.3,553.5 C473.7,575 438.7,586 402.9,584.5 C367.1,586 332.1,575 303.5,553.5 C299.7,548.9 300.4,542 305,538.2 C309,534.9 314.7,534.9 318.8,538.2 C343,555.9 372.5,564.9 402.5,563.5 C432.5,565.1 462.1,556.5 486.6,539 C491,534.7 498.2,534.8 502.5,539.2 C506.8,543.6 506.7,550.8 502.3,555.1 L502.3,553.5 Z M495.1,484.6 C472.9,484.6 454.8,466.5 454.8,444.3 C454.8,422.1 472.9,404 495.1,404 C517.3,404 535.4,422.1 535.4,444.3 C536.3,466.5 519,485.2 496.8,486.1 C496.1,486.1 495.5,486.1 494.8,486.1 L495.1,484.6 Z" id="Shape" fill="#FFFFFF" fill-rule="nonzero" fill-color-id="0" stroke-color-id="-1" recolor-fill="true" recolor-stroke="true"/>
            </g>
            <g id="Group" transform="translate(1020.000000, 135.000000)" fill-color-id="-1" stroke-color-id="-1" recolor-fill="true" recolor-stroke="true">
                <circle id="Oval" fill="#FF4500FF" cx="1224.8" cy="90.1" r="54.8" fill-color-id="2" stroke-color-id="-1" recolor-fill="true" recolor-stroke="true"/>
                <path d="M448.2,323.3 C469.4,324.8 487.8,308.8 489.4,287.5 C489.5,286.3 489.5,284.9 489.5,283.6 C489.2,276.2 488.3,268.7 486.8,261.4 C473.8,192 414.5,140.9 344,138.1 C263.7,138.1 196.6,211.9 196.6,302.5 C196.6,393.1 262.6,467 343.9,467 C387,468.7 428.8,451.3 457.8,419.4 C469.7,406.4 468.7,386.3 455.7,374.4 C454.7,373.5 453.8,372.7 452.8,372 C439.8,363.9 422.9,365.6 411.9,376.2 C393.8,394.2 369.5,404.5 343.9,405.3 C299.7,401.8 264.3,367.2 259.9,322.9 L447,322.9 L448.2,323.3 Z M343.6,200 C382.5,202.6 415.2,230.4 423.9,268.5 L263.5,268.5 C272.1,230.3 304.6,202.5 343.6,200 Z" id="Shape" fill="#000000" fill-rule="nonzero" fill-color-id="1" stroke-color-id="-1" recolor-fill="true" recolor-stroke="true"/>
                <path d="M199.8,170 C199.8,154.6 188.4,141.5 173.1,139.6 C131.8,132.7 89.8,148 62.7,180 L62.7,176 C62.7,158.9 48.9,145.1 31.8,145.1 C14.7,145.1 0.9,158.9 0.9,176 L0.9,429 C0.5,445.6 13.2,459.7 29.8,461.1 C46.7,462.3 61.5,449.5 62.6,432.6 C62.7,431.4 62.7,430.2 62.6,429 L62.6,299.2 C59.9,247.4 99.6,203.3 151.4,200.5 C156,200.2 160.7,200.3 165.3,200.8 L171.5,200.8 C187.5,199.4 199.8,186.1 199.8,170 Z" id="Path" fill="#000000" fill-color-id="1" stroke-color-id="-1" recolor-fill="true" recolor-stroke="true"/>
                <path d="M1255.6,203.2 C1255.6,186.1 1241.8,172.3 1224.7,172.3 C1207.6,172.3 1193.8,186.1 1193.8,203.2 L1193.8,428.9 C1193.8,446 1207.6,459.8 1224.7,459.8 C1241.8,459.8 1255.6,446 1255.6,428.9 L1255.6,203.2 Z" id="Path" fill="#000000" fill-color-id="1" stroke-color-id="-1" recolor-fill="true" recolor-stroke="true"/>
                <path d="M799.6,31.7 C799.6,14.7 785.8,0.9 768.8,0.9 C751.8,0.9 738,14.7 738,31.7 L738,169.7 C717.2,148.7 688.6,137.3 659.1,138.1 C578.8,138.1 511.7,211.9 511.7,302.5 C511.7,393.1 577.8,467 659.1,467 C689.1,467.9 718.1,456.4 739.4,435.1 C744.2,451.4 761.3,460.7 777.6,455.9 C789.9,452.3 798.7,441.5 799.5,428.6 L799.6,31.7 Z M658.9,406.1 C611.6,406.1 573.1,360.1 573.1,303.2 C573.1,246.3 611.3,200.3 658.9,200.3 C706.5,200.3 744.7,246.3 744.7,303.2 C744.7,360.1 706.5,405.6 659.1,405.6 L658.9,406.1 Z" id="Shape" fill="#000000" fill-rule="nonzero" fill-color-id="1" stroke-color-id="-1" recolor-fill="true" recolor-stroke="true"/>
                <path d="M1121.8,31.7 C1121.8,14.7 1108,0.9 1091,0.9 C1074,0.9 1060.2,14.7 1060.2,31.7 L1060.2,169.7 C1039.4,148.7 1010.8,137.3 981.3,138.1 C901,138.1 833.9,211.9 833.9,302.5 C833.9,393.1 900,467 981.3,467 C1011.3,467.9 1040.3,456.4 1061.6,435.1 C1066.4,451.4 1083.5,460.7 1099.8,455.9 C1112.1,452.3 1120.9,441.5 1121.7,428.6 L1121.8,31.7 Z M981.2,406.1 C933.9,406.1 895.4,360.1 895.4,303.2 C895.4,246.3 933.6,200.3 981.2,200.3 C1028.8,200.3 1067,246.3 1067,303.2 C1067,360.1 1028.8,405.6 981.4,405.6 L981.2,406.1 Z" id="Shape" fill="#000000" fill-rule="nonzero" fill-color-id="1" stroke-color-id="-1" recolor-fill="true" recolor-stroke="true"/>
                <path d="M1415.7,428.8 L1415.7,200 L1442.4,200 C1457.2,200.9 1469.8,189.6 1470.7,174.9 C1470.7,174.4 1470.8,173.8 1470.8,173.2 C1472.1,158.5 1461.2,145.5 1446.6,144.2 C1445.8,144.1 1444.9,144.1 1444.1,144.1 L1415.8,144.1 L1415.8,101.6 C1416,85.1 1403.4,71.2 1386.9,69.7 C1370,68.5 1355.3,81.3 1354.1,98.2 C1354,98.9 1354,99.7 1354,100.4 L1354,144.8 L1327.2,144.8 C1312.4,143.9 1299.8,155.2 1298.9,169.9 C1298.9,170.4 1298.8,171 1298.8,171.6 C1297.5,186.3 1308.4,199.3 1323,200.6 C1323.8,200.7 1324.7,200.7 1325.5,200.7 L1352.2,200.7 L1352.2,428.9 C1352.2,445.9 1366,459.7 1383,459.7 C1400,460.8 1414.5,447.8 1415.6,430.8 C1415.7,430.2 1415.7,429.5 1415.7,428.8 Z" id="Path" fill="#000000" fill-color-id="1" stroke-color-id="-1" recolor-fill="true" recolor-stroke="true"/>
            </g>
        </g>
    </g>
</svg>