<svg xmlns="http://www.w3.org/2000/svg" xmlns:xlink="http://www.w3.org/1999/xlink" viewBox="0 0 658 146" version="1.1" width="500px" height="111px">
    <!-- Generator: Sketch 52.6 (67491) - http://www.bohemiancoding.com/sketch -->
    <title>verizon</title>
    <desc>Created with Sketch.</desc>
    <g id="Page-1" stroke="none" stroke-width="1" fill="none" fill-rule="evenodd" fill-color-id="-1" stroke-color-id="-1" recolor-fill="true" recolor-stroke="true">
        <g id="verizon" fill-color-id="-1" stroke-color-id="-1" recolor-fill="true" recolor-stroke="true">
            <polygon id="Path" fill="#FFFFFFFF" points="642.7 0 606.8 76.8 593.3 47.7 578.7 47.7 600.9 95.3 612.7 95.3 657.2 0" fill-color-id="1" stroke-color-id="-1" recolor-fill="true" recolor-stroke="true"/>
            <path d="M488.7,142.6 L517.6,142.6 L517.6,89.7 C517.6,77.6 524.6,69.1 535,69.1 C545,69.1 550.2,76.1 550.2,86.2 L550.2,142.6 L579.1,142.6 L579.1,80.7 C579.1,59.7 566.5,44.9 546.1,44.9 C533.1,44.9 524,50.5 517.2,60.7 L516.6,60.7 L516.6,47.7 L488.6,47.7 L488.7,142.6 Z M431.9,45.1 C401.7,45.1 381.5,66.8 381.5,95.4 C381.5,123.8 401.7,145.7 431.9,145.7 C462.1,145.7 482.3,123.8 482.3,95.4 C482.4,66.8 462.1,45.1 431.9,45.1 Z M431.7,124.3 C418,124.3 410.7,112.8 410.7,95.4 C410.7,77.8 417.9,66.5 431.7,66.5 C445.4,66.5 453,77.8 453,95.4 C453.1,112.8 445.5,124.3 431.7,124.3 Z M299.1,142.6 L380.3,142.6 L380.3,119.8 L334.3,119.8 L334.3,119.2 L378.3,69.9 L378.3,47.6 L299.1,47.6 L299.1,70.5 L343.6,70.5 L343.6,71.1 L299.1,120.8 L299.1,142.6 Z M262,142.6 L291.1,142.6 L291.1,47.7 L262,47.7 L262,142.6 Z M194.5,142.6 L223.5,142.6 L223.5,99 C223.5,79.2 235.4,70.4 253.5,72.9 L254.1,72.9 L254.1,47.9 C252.6,47.3 250.9,47.2 248.2,47.2 C236.9,47.2 229.3,52.4 222.8,63.5 L222.2,63.5 L222.2,47.7 L194.5,47.7 L194.5,142.6 Z M141.3,124.4 C128.5,124.4 120.7,116.1 119.2,103.3 L187.6,103.3 C187.8,82.9 182.4,66.6 171.1,56.4 C163.1,49 152.6,44.9 139.2,44.9 C110.6,44.9 90.8,66.6 90.8,95 C90.8,123.6 109.7,145.4 141.1,145.4 C153,145.4 162.4,142.2 170.2,136.9 C178.5,131.2 184.5,122.8 186.1,114.5 L158.3,114.5 C155.6,120.7 149.8,124.4 141.3,124.4 Z M139.8,65.6 C150,65.6 157,73.2 158.2,84.3 L119.4,84.3 C121.7,73.1 127.8,65.6 139.8,65.6 Z M33,142.6 L63.4,142.6 L96.4,47.7 L67.3,47.7 L48.8,108.7 L48.4,108.7 L29.9,47.7 L0,47.7 L33,142.6 Z M262,13.9 L291.1,13.9 L291.1,39.7 L262,39.7 L262,13.9 Z" id="Shape" fill="#FFFFFFFF" fill-rule="nonzero" fill-color-id="0" stroke-color-id="-1" recolor-fill="true" recolor-stroke="true"/>
        </g>
    </g>
</svg>