<?xml version="1.0" encoding="iso-8859-1"?>
<!-- Generator: Adobe Illustrator 19.0.0, SVG Export Plug-In . SVG Version: 6.00 Build 0)  -->
<svg version="1.1" id="Layer_1" xmlns="http://www.w3.org/2000/svg" xmlns:xlink="http://www.w3.org/1999/xlink" x="0px" y="0px"
	 viewBox="0 0 324.08 324.08" style="enable-background:new 0 0 324.08 324.08;" xml:space="preserve">
<g>
	<g>
		<path style="fill:#4C3626;" d="M282.619,120.585c0-3.839-1.259-7.391-3.384-10.252c1.596-3.193,2.22-6.902,1.551-10.685
			s-2.524-7.059-5.115-9.51c1.017-3.417,0.989-7.183-0.326-10.792c-1.315-3.608-3.71-6.514-6.689-8.476
			c0.41-3.547-0.275-7.245-2.198-10.572c-1.922-3.327-4.783-5.767-8.06-7.189c-0.214-3.563-1.529-7.088-3.996-10.033
			c-2.467-2.945-5.716-4.851-9.184-5.677c-0.826-3.468-2.737-6.717-5.677-9.184c-2.945-2.467-6.469-3.783-10.033-3.996
			c-1.416-3.271-3.861-6.138-7.189-8.06c-3.327-1.922-7.026-2.602-10.572-2.198c-1.967-2.979-4.867-5.373-8.476-6.689
			c-3.608-1.315-7.374-1.343-10.792-0.326c-2.451-2.591-5.727-4.446-9.51-5.115c-3.783-0.669-7.492-0.045-10.685,1.551
			C169.419,1.259,165.873,0,162.034,0s-7.391,1.259-10.252,3.384c-3.193-1.596-6.902-2.22-10.685-1.551s-7.059,2.524-9.51,5.115
			c-3.417-1.017-7.183-0.989-10.792,0.326s-6.514,3.71-8.476,6.689c-3.547-0.41-7.245,0.275-10.572,2.198
			c-3.327,1.922-5.767,4.783-7.189,8.06c-3.563,0.214-7.088,1.529-10.033,3.996s-4.851,5.716-5.677,9.184
			c-3.468,0.826-6.717,2.737-9.184,5.677c-2.467,2.945-3.783,6.469-3.996,10.033c-3.271,1.416-6.138,3.861-8.06,7.189
			c-1.922,3.327-2.602,7.026-2.198,10.572c-2.979,1.967-5.373,4.867-6.689,8.476c-1.315,3.608-1.343,7.374-0.326,10.792
			c-2.591,2.451-4.446,5.727-5.115,9.51c-0.669,3.783-0.045,7.492,1.551,10.685c-2.125,2.867-3.384,6.413-3.384,10.252
			s1.259,7.391,3.384,10.252c-1.596,3.193-2.22,6.902-1.551,10.685c0.669,3.783,2.524,7.059,5.115,9.51
			c-1.017,3.417-0.989,7.183,0.326,10.792c1.315,3.608,3.71,6.514,6.689,8.476c-0.41,3.547,0.275,7.245,2.198,10.572
			c1.922,3.327,4.783,5.767,8.06,7.189c0.214,3.563,1.529,7.088,3.996,10.033s5.716,4.851,9.184,5.677
			c0.826,3.468,2.737,6.717,5.677,9.184c2.945,2.467,6.469,3.783,10.033,3.996c1.416,3.271,3.861,6.138,7.189,8.06
			c3.327,1.922,7.026,2.602,10.572,2.198c1.967,2.979,4.867,5.373,8.476,6.689c3.608,1.315,7.374,1.343,10.792,0.326
			c2.451,2.591,5.727,4.446,9.51,5.115s7.492,0.045,10.685-1.551c2.867,2.125,6.413,3.384,10.252,3.384s7.391-1.259,10.252-3.384
			c3.193,1.596,6.902,2.22,10.685,1.551s7.059-2.524,9.51-5.115c3.417,1.017,7.183,0.989,10.792-0.326s6.514-3.71,8.476-6.689
			c3.547,0.41,7.245-0.275,10.572-2.198c3.327-1.922,5.767-4.783,7.189-8.06c3.563-0.214,7.088-1.529,10.033-3.996
			s4.851-5.716,5.677-9.184c3.468-0.826,6.717-2.737,9.184-5.677c2.467-2.945,3.783-6.469,3.996-10.033
			c3.271-1.416,6.138-3.861,8.06-7.189c1.922-3.327,2.602-7.026,2.198-10.572c2.979-1.967,5.373-4.867,6.689-8.476
			c1.315-3.608,1.343-7.374,0.326-10.792c2.591-2.451,4.446-5.727,5.115-9.51c0.669-3.783,0.045-7.492-1.551-10.685
			C281.36,127.97,282.619,124.424,282.619,120.585z"/>
		<path style="fill:#EAE5DC;" d="M306.231,258.633c-11.151-37.754-67.121-33.566-91.279-44.408
			c-24.157-10.842-20.386-47.219-23.449-53.548h-58.932c-3.058,6.329,0.714,42.711-23.449,53.548
			c-24.157,10.842-80.133,6.655-91.279,44.408c-6.149,20.824-5.857,27.193-7.554,50.26c0,0,76.8,15.187,150.014,15.187
			s153.488-15.187,153.488-15.187C312.087,285.819,312.38,279.457,306.231,258.633z"/>
		<path style="fill:#E0DBD3;" d="M306.231,258.633c-11.151-37.754-67.121-33.566-91.279-44.408
			c-24.157-10.842-20.386-47.219-23.449-53.548h-31.206c0,0-0.719,51.024,23.438,61.866s80.133,6.655,91.279,44.408
			c5.857,19.83,5.868,26.552,7.324,47.073c19.234-2.816,31.442-5.126,31.442-5.126C312.087,285.819,312.38,279.457,306.231,258.633z
			"/>
		<path style="fill:#E0DBD3;" d="M192.649,231.496c9.741-3.805,17.756-9.409,23.168-16.21l0.416-0.517
			c-0.433-0.18-0.86-0.36-1.276-0.545c-24.157-10.842-20.386-47.219-23.449-53.548H132.57c-3.058,6.329,0.714,42.711-23.449,53.548
			c-0.416,0.185-0.843,0.371-1.276,0.545l0.416,0.517c5.413,6.795,13.428,12.399,23.168,16.21c9.229,3.603,19.813,5.508,30.61,5.508
			S183.42,235.099,192.649,231.496z"/>
		<path style="fill:#D3CEC7;" d="M214.952,214.224c-4.345-1.95-7.779-4.727-10.516-8.004l0,0
			c-5.064,6.357-13.827,11.404-24.573,14.096c1.214,0.86,2.507,1.607,3.878,2.22c4.71,2.113,10.634,3.659,17.199,5.053
			c6.031-3.378,11.089-7.548,14.872-12.304l0.416-0.517C215.795,214.595,215.368,214.41,214.952,214.224z"/>
		<path style="fill:#CCA281;" d="M204.436,206.22c-12.5-14.951-10.421-40.356-12.927-45.549h-58.938
			c-2.512,5.193-0.427,30.599-12.927,45.549c7.655,9.611,23.764,16.232,42.396,16.232S196.781,215.832,204.436,206.22z"/>
		<path style="fill:#BC9173;" d="M179.862,220.317c10.747-2.692,19.509-7.74,24.573-14.096
			c-12.5-14.951-10.421-40.356-12.927-45.549h-31.206C160.303,160.677,159.662,206.063,179.862,220.317z"/>
		<path style="fill:#B2876B;" d="M124.64,198.273c9.78,7.959,21.24,15.85,37.338,18.132c16.137-2.288,27.569-10.342,37.36-18.334
			c-8.144-14.973-5.626-32.83-7.83-37.4H132.57C130.356,165.246,132.824,183.294,124.64,198.273z"/>
		<path style="fill:#6D6D6D;" d="M63.179,317.183c27.631,3.552,62.771,6.896,97.124,6.896c35.112,0,71.854-3.496,100.581-7.133
			v-22.853c0,0-56.853,8.526-100.721,8.526s-96.978-8.526-96.978-8.526v23.089h-0.006V317.183z"/>
		<g>
			<path style="fill:#FFC55F;" d="M160.303,324.079c7.616,0,15.311-0.163,22.977-0.461v-11.32c0-3.384-2.743-6.126-6.126-6.126
				h-30.228c-3.384,0-6.126,2.743-6.126,6.126v11.444C147.291,323.961,153.811,324.079,160.303,324.079z"/>
			<path style="fill:#F2AC2F;" d="M180.16,323.731v-11.432c0-1.658-1.349-3.013-3.013-3.013H146.92
				c-1.658,0-3.013,1.349-3.013,3.013v11.539c0.691,0.022,1.388,0.039,2.08,0.056v-11.595c0-0.511,0.416-0.933,0.933-0.933h30.228
				c0.511,0,0.933,0.416,0.933,0.933v11.5C178.772,323.776,179.469,323.753,180.16,323.731z"/>
			<circle style="fill:#FFC55F;" cx="219.454" cy="217.293" r="4.721"/>
			<circle style="fill:#FFC55F;" cx="217.678" cy="226.522" r="4.721"/>
			<circle style="fill:#FFC55F;" cx="215.132" cy="235.582" r="4.721"/>
			<circle style="fill:#FFC55F;" cx="212.524" cy="244.587" r="4.721"/>
			<circle style="fill:#FFC55F;" cx="208.235" cy="252.967" r="4.721"/>
			<circle style="fill:#FFC55F;" cx="203.087" cy="260.903" r="4.721"/>
			<circle style="fill:#FFC55F;" cx="197.202" cy="268.57" r="4.721"/>
			<circle style="fill:#FFC55F;" cx="191.272" cy="276.09" r="4.721"/>
			<circle style="fill:#FFC55F;" cx="184.072" cy="282.026" r="4.721"/>
			<circle style="fill:#FFC55F;" cx="176.754" cy="288.006" r="4.721"/>
			<circle style="fill:#FFC55F;" cx="169.431" cy="294.132" r="4.721"/>
			<circle style="fill:#FFC55F;" cx="161.978" cy="299.916" r="4.721"/>
			<circle style="fill:#FFC55F;" cx="104.501" cy="217.293" r="4.721"/>
			<circle style="fill:#FFC55F;" cx="106.277" cy="226.522" r="4.721"/>
			<circle style="fill:#FFC55F;" cx="108.818" cy="235.582" r="4.721"/>
			<circle style="fill:#FFC55F;" cx="111.431" cy="244.587" r="4.721"/>
			<circle style="fill:#FFC55F;" cx="115.714" cy="252.967" r="4.721"/>
			<circle style="fill:#FFC55F;" cx="120.869" cy="260.903" r="4.721"/>
			<circle style="fill:#FFC55F;" cx="126.753" cy="268.57" r="4.721"/>
			<circle style="fill:#FFC55F;" cx="132.683" cy="276.09" r="4.721"/>
			<circle style="fill:#FFC55F;" cx="139.883" cy="282.026" r="4.721"/>
			<circle style="fill:#FFC55F;" cx="147.201" cy="288.006" r="4.721"/>
			<circle style="fill:#FFC55F;" cx="154.525" cy="294.132" r="4.721"/>
		</g>
		<g>
			
				<ellipse transform="matrix(-0.177 0.9842 -0.9842 -0.177 393.6998 -81.8681)" style="fill:#BC9173;" cx="231.079" cy="123.672" rx="21.386" ry="11.629"/>
			
				<ellipse transform="matrix(-0.9842 0.177 -0.177 -0.9842 206.0693 228.9756)" style="fill:#CCA281;" cx="92.822" cy="123.679" rx="11.629" ry="21.386"/>
			<path style="fill:#CCA281;" d="M226.199,52.48h-64.221H97.79c0,0-35.989,146.614,64.187,160.806
				C262.193,199.093,226.199,52.48,226.199,52.48z"/>
			<path style="fill:#BC9173;" d="M161.978,213.285C262.193,199.093,226.199,52.48,226.199,52.48h-15.024
				c4.114,61.242,9.808,93.774-13.815,129.24C178.643,209.823,161.978,213.285,161.978,213.285z"/>
			<path style="fill:#4C3626;" d="M233.787,48.135H87.589v24.652c0,0,25.506,6.216,72.714,6.216s73.49-6.216,73.49-6.216V48.135
				H233.787z"/>
			<path style="fill:#BC9173;" d="M92.068,92.431c-0.208,3.069-0.365,6.239-0.467,9.493c2.226,1.051,4.716,1.641,7.346,1.641
				c3.316,0,6.408-0.939,9.038-2.557c3.08,2.878,7.211,4.637,11.753,4.637c3.316,0,6.408-0.939,9.038-2.557
				c3.08,2.878,7.211,4.637,11.753,4.637c3.316,0,6.408-0.939,9.038-2.557c3.08,2.878,7.211,4.637,11.753,4.637
				c4.547,0,8.678-1.765,11.753-4.637c2.625,1.624,5.722,2.557,9.038,2.557c4.547,0,8.678-1.765,11.753-4.637
				c2.625,1.624,5.722,2.557,9.038,2.557c4.547,0,8.678-1.765,11.753-4.637c2.625,1.624,5.722,2.557,9.038,2.557
				c3.164,0,6.126-0.854,8.673-2.344c-0.101-3.007-0.253-5.947-0.444-8.791H92.068V92.431z"/>
			<path style="fill:#4C3626;" d="M223.692,64.957c-4.547,0-8.678,1.765-11.753,4.637c-2.625-1.624-5.722-2.557-9.038-2.557
				c-4.547,0-8.678,1.765-11.753,4.637c-2.625-1.624-5.722-2.557-9.038-2.557c-4.547,0-8.678,1.765-11.753,4.637
				c-2.625-1.624-5.722-2.557-9.038-2.557s-6.408,0.939-9.038,2.557c-3.08-2.878-7.211-4.637-11.753-4.637
				c-3.316,0-6.408,0.939-9.038,2.557c-3.08-2.878-7.211-4.637-11.753-4.637c-3.316,0-6.408,0.939-9.038,2.557
				c-3.08-2.878-7.211-4.637-11.753-4.637c-9.516,0-17.227,7.711-17.227,17.227s7.711,17.227,17.227,17.227
				c3.316,0,6.407-0.939,9.038-2.557c3.08,2.878,7.211,4.637,11.753,4.637c3.316,0,6.407-0.939,9.038-2.557
				c3.08,2.878,7.211,4.637,11.753,4.637c3.316,0,6.408-0.939,9.038-2.557c3.08,2.878,7.211,4.637,11.753,4.637
				c4.547,0,8.678-1.765,11.753-4.637c2.625,1.624,5.722,2.557,9.038,2.557c4.547,0,8.678-1.765,11.753-4.637
				c2.625,1.624,5.722,2.557,9.038,2.557c4.547,0,8.678-1.765,11.753-4.637c2.625,1.624,5.722,2.557,9.038,2.557
				c9.516,0,17.227-7.711,17.227-17.227C240.914,72.675,233.202,64.957,223.692,64.957z"/>
		</g>
	</g>
</g>
<g>
</g>
<g>
</g>
<g>
</g>
<g>
</g>
<g>
</g>
<g>
</g>
<g>
</g>
<g>
</g>
<g>
</g>
<g>
</g>
<g>
</g>
<g>
</g>
<g>
</g>
<g>
</g>
<g>
</g>
</svg>
