<svg  viewBox="0 0 272 31" fill="none" xmlns="http://www.w3.org/2000/svg">
<g style="mix-blend-mode:lighten">
<path d="M22.7317 30H0.261703V0.767998H11.6437C14.0797 0.767998 16.0677 1.202 17.6077 2.07C19.1197 2.91 20.2957 4.058 21.1357 5.514C21.9757 6.97 22.3957 8.58 22.3957 10.344C22.3957 12.528 21.7237 14.488 20.3797 16.224C19.0357 17.932 17.3417 19.066 15.2977 19.626L22.7317 30ZM2.9077 2.322L14.3317 18.282C16.2077 17.89 17.7617 16.952 18.9937 15.468C20.2257 13.984 20.8417 12.276 20.8417 10.344C20.8417 8.804 20.4637 7.404 19.7077 6.144C18.9517 4.884 17.8877 3.918 16.5157 3.246C15.2837 2.63 13.6737 2.322 11.6857 2.322H2.9077ZM1.8157 3.33V18.408H12.6097L1.8157 3.33ZM1.8157 28.446H19.7917L13.6597 19.92L12.3577 19.962H1.8157V28.446ZM31.2255 0.767998H52.5195V8.16H38.8695V11.856H50.2095V18.87H38.8695V22.608H52.5195V30H31.2255V0.767998ZM86.5914 30H59.0394L72.8154 0.137999L86.5914 30ZM61.4754 28.446H84.1554L72.8154 3.834L61.4754 28.446ZM116.673 22.566V30H94.4132V0.767998H95.9672V22.566H116.673ZM134.785 1.692C132.909 1.692 131.159 2.168 129.535 3.12C127.939 4.044 126.665 5.318 125.713 6.942C124.761 8.538 124.285 10.288 124.285 12.192V17.736C124.285 19.724 124.565 21.362 125.125 22.65C125.909 24.47 127.099 25.954 128.695 27.102C130.291 28.25 132.083 28.894 134.071 29.034V15.384H146.881V18.156C146.881 19.948 146.615 21.544 146.083 22.944C145.215 25.268 143.759 27.13 141.715 28.53C139.671 29.93 137.361 30.63 134.785 30.63C132.349 30.63 130.123 29.972 128.107 28.656C126.119 27.312 124.663 25.534 123.739 23.322C123.067 21.754 122.731 19.892 122.731 17.736V12.192C122.731 10.008 123.263 7.992 124.327 6.144C125.419 4.296 126.889 2.84 128.737 1.776C130.585 0.683999 132.601 0.137999 134.785 0.137999C136.605 0.137999 138.271 0.445999 139.783 1.062C141.295 1.65 142.583 2.518 143.647 3.666C144.515 4.618 145.215 5.682 145.747 6.858C146.307 8.034 146.587 9.224 146.587 10.428H145.075C145.047 9.392 144.781 8.37 144.277 7.362C143.801 6.354 143.185 5.444 142.429 4.632C140.553 2.672 138.005 1.692 134.785 1.692ZM145.327 16.896H135.583V29.034C137.599 28.894 139.405 28.264 141.001 27.144C142.625 25.996 143.815 24.484 144.571 22.608C145.075 21.292 145.327 19.808 145.327 18.156V16.896ZM178.181 30H155.711V0.767998H167.093C169.529 0.767998 171.517 1.202 173.057 2.07C174.569 2.91 175.745 4.058 176.585 5.514C177.425 6.97 177.845 8.58 177.845 10.344C177.845 12.528 177.173 14.488 175.829 16.224C174.485 17.932 172.791 19.066 170.747 19.626L178.181 30ZM158.357 2.322L169.781 18.282C171.657 17.89 173.211 16.952 174.443 15.468C175.675 13.984 176.291 12.276 176.291 10.344C176.291 8.804 175.913 7.404 175.157 6.144C174.401 4.884 173.337 3.918 171.965 3.246C170.733 2.63 169.123 2.322 167.135 2.322H158.357ZM157.265 3.33V18.408H168.059L157.265 3.33ZM157.265 28.446H175.241L169.109 19.92L167.807 19.962H157.265V28.446ZM186.675 0.767998H207.969V8.16H194.319V11.856H205.659V18.87H194.319V22.608H207.969V30H186.675V0.767998ZM242.041 30H214.489L228.265 0.137999L242.041 30ZM216.925 28.446H239.605L228.265 3.834L216.925 28.446ZM258.598 30V8.16H247.552V0.767998H271.156V8.16H260.11V30H258.598Z" fill="#FD0098"/>
</g>
</svg>
