<?xml version="1.0" encoding="iso-8859-1"?>
<!-- Generator: Adobe Illustrator 19.0.0, SVG Export Plug-In . SVG Version: 6.00 Build 0)  -->
<svg version="1.1" id="Layer_1" xmlns="http://www.w3.org/2000/svg" xmlns:xlink="http://www.w3.org/1999/xlink" x="0px" y="0px"
	 viewBox="0 0 352.4 352.4" style="enable-background:new 0 0 352.4 352.4;" xml:space="preserve" fill="white">

		<g>
			<path d="M119.6,237.949c-4.4,0-8,3.6-8,8v12c0,4.4,3.6,8,8,8c4.4,0,8-3.6,8-8v-12C127.6,241.549,124,237.949,119.6,237.949z"/>
			<path d="M348.8,3.549c-2-1.6-4.8-2-7.2-0.8l-92,32.8c-5.2,2-10.4,2.8-15.6,3.2c-0.8,0-1.2-0.4-2-0.4s-1.2,0-2,0.4
				c-5.2-0.4-10.4-1.2-15.2-3.2l-72-25.6c-14.8-5.6-30.8-5.6-45.6,0l-92,32.8c-3.2,1.2-5.2,4-5.2,7.6v292c0,2.8,1.2,5.2,3.2,6.4
				c1.2,0.8,2.8,1.6,4.8,1.6c0.8,0,2,0,2.8-0.4l92-32.8c11.6-4,23.6-4,34.8,0l71.6,25.6c15.2,5.6,30.8,5.6,46,0l92-32.8
				c3.2-1.2,5.2-4,5.2-7.6v-292C352,7.149,350.8,4.749,348.8,3.549z M223.6,329.949c-3.2-0.4-6.4-1.2-9.2-2.4l-71.6-26
				c-15.2-5.6-30.8-5.6-46,0l-81.2,29.2v-275.2l86.8-30.8c2.8-1.2,6-2,9.2-2.4v187.6c0,4.4,3.6,8,8,8c4.4,0,8-3.6,8-8v-187.6
				c3.2,0.4,6.4,1.2,9.2,2.4l72,25.6c4.8,1.6,9.6,2.8,14.8,3.6V329.949z M249.2,327.149c-3.2,1.2-6.4,2-9.6,2.4v-276
				c5.2-0.8,10-1.6,15.2-3.6l81.2-28.8v275.2h0L249.2,327.149z"/>
		</g>
</svg>
