<svg width="128px" height="128px" viewBox="0 0 128 128" fill="none" xmlns="http://www.w3.org/2000/svg">
<path fill-rule="evenodd" clip-rule="evenodd" d="M37.0409 66.6549L60.4468 75.4433C62.2696 76.1278 64.2795 76.1239 66.0997 75.4325L88.962 66.7484L88.9618 83.4477C88.962 83.4635 88.9621 83.4792 88.9621 83.495C88.9621 88.6399 77.3391 92.8106 63.0015 92.8106C48.6638 92.8106 37.0409 88.6399 37.0409 83.495C37.0409 83.4898 37.0408 83.4845 37.0408 83.4792C37.0408 83.4687 37.0407 83.4582 37.0409 83.4477V66.6549Z" fill="black"/>
<path d="M110.065 79.2054C110.846 77.7714 111.729 75.9086 112.477 74.2526C113.059 72.9632 114.716 72.6791 115.428 73.9011C116.677 76.0409 117.5 78.594 117.909 80.2952C118.039 80.8355 117.925 81.4215 117.509 81.7908C115.748 83.3571 113.028 82.9374 110.916 82.1365C109.783 81.7069 109.485 80.2694 110.065 79.2054Z" fill="white"/>
<path fill-rule="evenodd" clip-rule="evenodd" d="M114.04 74.1257C113.817 74.1564 113.543 74.3211 113.388 74.664C112.637 76.3276 111.742 78.2169 110.943 79.6836C110.774 79.994 110.737 80.3575 110.815 80.6544C110.89 80.938 111.052 81.1184 111.271 81.2014C112.259 81.5763 113.345 81.8434 114.352 81.8514C115.352 81.8593 116.204 81.6137 116.845 81.0435C116.917 80.9798 117.004 80.8086 116.937 80.5293C116.54 78.8819 115.746 76.4307 114.565 74.405C114.422 74.1595 114.233 74.0991 114.04 74.1257ZM113.767 72.1445C114.726 72.0122 115.723 72.4207 116.292 73.3972L115.428 73.9011M113.767 72.1445C112.838 72.2726 111.993 72.8947 111.565 73.8412L113.767 72.1445ZM116.292 73.3972C117.607 75.6511 118.459 78.3061 118.881 80.0611C119.074 80.8625 118.933 81.8632 118.174 82.5381C117.054 83.5342 115.664 83.8619 114.336 83.8513C113.015 83.8408 111.685 83.4976 110.561 83.0715C108.685 82.3599 108.416 80.1426 109.186 78.7271C109.95 77.3259 110.821 75.4898 111.565 73.8412" fill="black"/>
<path fill-rule="evenodd" clip-rule="evenodd" d="M112.252 71.6091C112.679 71.2594 113.309 71.3224 113.659 71.7498C114.002 72.169 114.178 72.785 114.289 73.2976C114.41 73.863 114.494 74.524 114.552 75.1886C114.668 76.521 114.688 77.963 114.671 78.8885C114.661 79.4407 114.205 79.8802 113.653 79.8702C113.101 79.8602 112.661 79.4044 112.672 78.8522C112.687 77.9757 112.668 76.6066 112.56 75.3621C112.505 74.7382 112.431 74.1694 112.334 73.7189C112.285 73.4938 112.235 73.3157 112.186 73.1838C112.14 73.0593 112.109 73.0142 112.109 73.0139C112.109 73.0138 112.11 73.0147 112.111 73.0163C111.761 72.5889 111.824 71.9589 112.252 71.6091Z" fill="black"/>
<path fill-rule="evenodd" clip-rule="evenodd" d="M113.475 52.3058C114.303 52.3058 114.975 52.9774 114.975 53.8058V70.4171C114.975 71.2456 114.303 71.9171 113.475 71.9171C112.646 71.9171 111.975 71.2456 111.975 70.4171V53.8058C111.975 52.9774 112.646 52.3058 113.475 52.3058Z" fill="black"/>
<path d="M117.603 71.0069C117.603 73.2869 115.755 75.1352 113.475 75.1352C111.195 75.1352 109.347 73.2869 109.347 71.0069C109.347 68.727 111.195 66.8787 113.475 66.8787C115.755 66.8787 117.603 68.727 117.603 71.0069Z" fill="black"/>
<path d="M60.1547 33.0997L11.6849 52.4133C10.7891 52.7703 10.8019 54.0427 11.7046 54.3817L60.3131 72.6331C62.2367 73.3554 64.3578 73.3513 66.2786 72.6217L114.302 54.3803C115.2 54.0393 115.212 52.774 114.322 52.4149L66.4363 33.1122C64.422 32.3003 62.1722 32.2958 60.1547 33.0997Z" fill="black"/>
<path fill-rule="evenodd" clip-rule="evenodd" d="M100.016 55.5271C100.205 56.0459 99.938 56.62 99.4192 56.8093L65.2136 69.2924C64.6947 69.4817 64.1207 69.2146 63.9313 68.6958C63.742 68.177 64.0091 67.6029 64.5279 67.4136L98.7335 54.9305C99.2524 54.7412 99.8264 55.0083 100.016 55.5271Z" fill="white"/>
<path fill-rule="evenodd" clip-rule="evenodd" d="M19.5669 53.2122C19.7571 52.6937 20.3317 52.4275 20.8502 52.6177L32.2819 56.8112C32.8004 57.0014 33.0665 57.5759 32.8763 58.0944C32.6861 58.6129 32.1116 58.8791 31.5931 58.6889L20.1614 54.4954C19.6429 54.3052 19.3767 53.7307 19.5669 53.2122Z" fill="white"/>
</svg>
