<?xml version="1.0" encoding="iso-8859-1"?>
<!-- Generator: Adobe Illustrator 19.0.0, SVG Export Plug-In . SVG Version: 6.00 Build 0)  -->
<svg version="1.1" id="Layer_1" xmlns="http://www.w3.org/2000/svg" xmlns:xlink="http://www.w3.org/1999/xlink" x="0px" y="0px"
	 viewBox="0 0 512 512" style="enable-background:new 0 0 512 512;" xml:space="preserve">
<g>
	<g>
		<path d="M171.168,350.126c-2.426-3.999-7.635-5.273-11.634-2.845c-11.05,6.708-20.07,16.293-26.083,27.719
			c-2.178,4.139-0.589,9.259,3.55,11.437c1.259,0.663,2.607,0.977,3.937,0.977c3.043,0,5.985-1.646,7.5-4.525
			c4.584-8.708,11.46-16.016,19.886-21.13C172.321,359.332,173.594,354.124,171.168,350.126z"/>
	</g>
</g>
<g>
	<g>
		<path d="M354.152,347.28c-3.996-2.426-9.205-1.153-11.633,2.844c-2.426,3.998-1.153,9.206,2.845,11.633
			c16.333,9.915,26.084,27.216,26.084,46.279v81.167H265.318v-91.538c0-4.677-3.79-8.468-8.468-8.468
			c-4.677,0-8.468,3.791-8.468,8.468v91.538h-34.436c-4.677,0-8.468,3.791-8.468,8.468s3.791,8.468,8.468,8.468h165.971
			c4.678,0,8.468-3.791,8.468-8.468v-89.635C388.385,383.005,375.588,360.293,354.152,347.28z"/>
	</g>
</g>
<g>
	<g>
		<path d="M409.479,218.667c0-17.903-13.593-32.688-31.003-34.595l-1.958-20.253c-2.88-29.809-16.677-57.313-38.848-77.445
			c-7.173-6.513-15.031-12.073-23.392-16.623c0.216-2.031,0.331-4.078,0.331-6.127c0-31.851-25.912-57.762-57.761-57.762
			c-31.851,0-57.763,25.912-57.763,57.762c0,2.05,0.116,4.096,0.332,6.127c-8.361,4.55-16.22,10.111-23.393,16.623
			c-22.171,20.132-35.968,47.636-38.848,77.445l-1.957,20.253c-17.409,1.902-31.002,16.69-31.002,34.596
			c0,15.666,10.276,28.934,24.587,33.293c-1.337,31.247,13.16,61.565,38.615,80.059l46.346,33.673
			c12.886,9.363,27.982,14.043,43.083,14.043c15.097-0.001,30.2-4.681,43.082-14.042l46.348-33.673
			c25.454-18.494,39.953-48.815,38.612-80.063C399.204,247.595,409.479,234.329,409.479,218.667z M130.366,234.308
			c-5.511-3.047-9.212-8.909-9.212-15.643c0-7.933,5.199-14.666,12.365-16.996L130.366,234.308z M256.85,22.793
			c22.057,0,40.072,17.586,40.792,39.472c-12.959-4.672-26.738-7.114-40.793-7.114c-14.053,0-27.832,2.442-40.792,7.114
			C216.776,40.378,234.792,22.793,256.85,22.793z M187.411,98.908c19.048-17.297,43.709-26.822,69.439-26.822
			c25.729,0,50.39,9.526,69.438,26.822c19.048,17.296,30.901,40.926,33.377,66.536l0.673,6.963
			c-32.195,9.773-71.066-20.9-71.47-21.223c-2.824-2.273-6.782-2.493-9.844-0.551c-28.133,17.854-61.811,18.651-85.11,16.174
			c-17.08-1.814-31.276-5.605-38.995-7.986C158.651,135.781,170.018,114.701,187.411,98.908z M336.325,318.318l-46.348,33.673
			c-19.815,14.395-46.441,14.397-66.257,0l-46.346-33.673c-21.966-15.959-33.989-42.661-31.377-69.687l7.022-72.657
			c23.45,6.897,81.641,19.386,130.048-8.023c10.472,7.354,36.378,23.33,63.793,23.328c5.022,0,10.093-0.559,15.13-1.783
			l5.715,59.134C370.314,275.656,358.291,302.359,336.325,318.318z M383.332,234.305l-3.153-32.633
			c7.167,2.33,12.365,9.063,12.365,16.992C392.544,225.396,388.843,231.256,383.332,234.305z"/>
	</g>
</g>
<g>
	<g>
		<path d="M206.587,218.245c-4.677,0-8.468,3.791-8.468,8.468v13.544c0,4.677,3.791,8.468,8.468,8.468
			c4.677,0,8.468-3.791,8.468-8.468v-13.544C215.055,222.036,211.264,218.245,206.587,218.245z"/>
	</g>
</g>
<g>
	<g>
		<path d="M332.459,199.836c-6.771-6.77-15.773-10.499-25.348-10.499s-18.577,3.729-25.348,10.499
			c-3.307,3.307-3.307,8.669,0.001,11.975c3.306,3.308,8.668,3.307,11.975,0c3.571-3.572,8.32-5.539,13.372-5.539
			c5.051,0,9.801,1.967,13.374,5.539c1.653,1.654,3.821,2.481,5.987,2.481c2.167,0,4.334-0.826,5.988-2.481
			C335.767,208.504,335.767,203.142,332.459,199.836z"/>
	</g>
</g>
<g>
	<g>
		<path d="M231.935,199.838c-13.975-13.977-36.718-13.978-50.696,0c-3.307,3.307-3.307,8.669,0,11.975
			c3.307,3.307,8.669,3.307,11.975,0c3.572-3.572,8.321-5.539,13.372-5.539c5.051,0,9.8,1.967,13.372,5.539
			c1.653,1.653,3.821,2.481,5.987,2.481s4.334-0.826,5.987-2.481C235.242,208.506,235.242,203.145,231.935,199.838z"/>
	</g>
</g>
<g>
	<g>
		<path d="M307.111,218.245c-4.678,0-8.468,3.791-8.468,8.468v13.544c0,4.677,3.79,8.468,8.468,8.468s8.468-3.791,8.468-8.468
			v-13.544C315.579,222.036,311.789,218.245,307.111,218.245z"/>
	</g>
</g>
<g>
	<g>
		<path d="M285.206,297.805c-3.307-3.305-8.669-3.306-11.976,0c-9.032,9.032-23.73,9.032-32.763,0
			c-3.307-3.308-8.669-3.307-11.975,0c-3.307,3.307-3.307,8.669,0,11.975c7.819,7.819,18.086,11.726,28.356,11.726
			c10.269,0,20.54-3.909,28.356-11.725C288.513,306.474,288.513,301.112,285.206,297.805z"/>
	</g>
</g>
<g>
	<g>
		<path d="M265.702,255.101h-0.386v-17.5c0-4.677-3.79-8.468-8.468-8.468c-4.677,0-8.468,3.791-8.468,8.468v17.5h-0.385
			c-4.677,0-8.468,3.791-8.468,8.468s3.791,8.468,8.468,8.468h17.707c4.678,0,8.468-3.791,8.468-8.468
			S270.38,255.101,265.702,255.101z"/>
	</g>
</g>
<g>
	<g>
		<path d="M495.064,116.545c0,4.677,3.79,8.468,8.468,8.468s8.468-3.791,8.468-8.468C512,56.782,463.38,8.161,403.617,8.161
			c-28.951,0-56.168,11.274-76.64,31.744c-3.307,3.307-3.307,8.669,0,11.975c3.308,3.307,8.669,3.307,11.976,0
			c15.26-15.26,34.966-24.45,56.195-26.387v91.051c0,1.774,0.57,3.454,1.552,4.854l-0.016,0.011l52.315,74.533
			c-8.282,4.743-17.351,8.229-26.945,10.192c-4.582,0.937-7.535,5.412-6.598,9.993c0.821,4.009,4.349,6.772,8.287,6.772
			c0.562,0,1.134-0.056,1.707-0.174c37.901-7.755,68.983-35.424,81.117-72.208c1.464-4.442-0.948-9.229-5.389-10.694
			c-4.445-1.466-9.23,0.948-10.694,5.389c-5.342,16.192-15.039,30.281-27.627,40.992l-47.398-67.527l67.954-46.722
			C490.82,85.156,495.064,100.36,495.064,116.545z M412.085,100.446V25.504c24.731,2.283,46.637,14.444,61.723,32.503
			L412.085,100.446z"/>
	</g>
</g>
<g>
	<g>
		<path d="M181.204,409.519H140.56c-4.677,0-8.468,3.791-8.468,8.468v79.684c0,4.677,3.791,8.468,8.468,8.468h40.644
			c4.677,0,8.468-3.791,8.468-8.468v-79.684C189.672,413.311,185.88,409.519,181.204,409.519z M172.736,489.202h-23.708v-62.748
			h23.708V489.202z"/>
	</g>
</g>
<g>
	<g>
		<path d="M115.158,387.504H74.514c-4.677,0-8.468,3.791-8.468,8.468v101.699c0,4.677,3.791,8.468,8.468,8.468h40.644
			c4.677,0,8.468-3.791,8.468-8.468V395.972C123.625,391.295,119.834,387.504,115.158,387.504z M106.69,489.202H82.982v-84.763
			h23.708V489.202z"/>
	</g>
</g>
<g>
	<g>
		<path d="M49.112,363.795H8.468c-4.677,0-8.468,3.791-8.468,8.468v23.855c0,4.677,3.791,8.468,8.468,8.468s8.468-3.791,8.468-8.468
			v-15.387h23.708v108.472H16.936v-64.858c0-4.677-3.791-8.468-8.468-8.468S0,419.668,0,424.345v73.326
			c0,4.677,3.791,8.468,8.468,8.468h40.644c4.677,0,8.468-3.791,8.468-8.468V372.263C57.579,367.586,53.788,363.795,49.112,363.795z
			"/>
	</g>
</g>
<g>
	<g>
		<path d="M427.326,297.749c-26.147,0-47.418,21.271-47.418,47.419c0,26.147,21.271,47.418,47.418,47.418
			c26.147,0,47.418-21.271,47.418-47.418C474.744,319.02,453.472,297.749,427.326,297.749z M396.844,345.167
			c0-13.87,9.315-25.598,22.014-29.277v25.769l-18.218,18.218C398.223,355.512,396.844,350.498,396.844,345.167z M427.326,375.649
			c-5.332,0-10.347-1.38-14.712-3.796l20.699-20.699c1.587-1.587,2.479-3.742,2.479-5.987v-29.277
			c12.7,3.68,22.014,15.407,22.014,29.277C457.808,361.975,444.134,375.649,427.326,375.649z"/>
	</g>
</g>
<g>
	<g>
		<circle cx="290.279" cy="405.801" r="8.468"/>
	</g>
</g>
<g>
	<g>
		<circle cx="290.279" cy="444.923" r="8.468"/>
	</g>
</g>
<g>
</g>
<g>
</g>
<g>
</g>
<g>
</g>
<g>
</g>
<g>
</g>
<g>
</g>
<g>
</g>
<g>
</g>
<g>
</g>
<g>
</g>
<g>
</g>
<g>
</g>
<g>
</g>
<g>
</g>
</svg>
