<?xml version="1.0" encoding="utf-8"?>
<!-- Uploaded to SVGRepo https://www.svgrepo.com -->
<svg version="1.2" baseProfile="tiny" id="Layer_1" xmlns="http://www.w3.org/2000/svg" xmlns:xlink="http://www.w3.org/1999/xlink"
	 x="0px" y="0px" viewBox="-351 153 256 256" xml:space="preserve">
<g>
	<path d="M-112.7,181.7h-219.8c-6.9,0-12.7,5.8-12.7,12.7V340c0,6.9,5.8,12.7,12.7,12.7h79.5v21.2h-20.2c-3.5,0-6.4,2.9-6.4,6.4v0.9
		c0,3.5,2.9,6.4,6.4,6.4h101.4c3.5,0,6.4-2.9,6.4-6.4v-0.9c0-3.5-2.9-6.4-6.4-6.4h-20.2v-21.2h79.5c6.9,0,12.7-5.8,12.7-12.7V194.4
		C-100,187.4-105.8,181.7-112.7,181.7z M-222.6,345c-4,0.1-7.3-3.2-7.3-7.3c0-4,3.3-7.3,7.3-7.3s7.3,3.3,7.3,7.3
		C-215.3,341.7-218.6,345-222.6,345z M-115.6,324.7H-329V197.5h213.5V324.7z"/>
	<polygon points="-175.5,261 -215.6,282.3 -249.9,212.2 -299.9,310 -143.6,310 	"/>
	<circle cx="-163.3" cy="235.2" r="17.8"/>
</g>
</svg>
