<?xml version="1.0" encoding="iso-8859-1"?>
<!-- Generator: Adobe Illustrator 16.0.0, SVG Export Plug-In . SVG Version: 6.00 Build 0)  -->
<!DOCTYPE svg PUBLIC "-//W3C//DTD SVG 1.1//EN" "http://www.w3.org/Graphics/SVG/1.1/DTD/svg11.dtd">
<svg version="1.1" id="Capa_1" xmlns="http://www.w3.org/2000/svg" xmlns:xlink="http://www.w3.org/1999/xlink" x="0px" y="0px"
	 width="77.055px" height="77.055px" viewBox="0 0 77.055 77.055" style="enable-background:new 0 0 77.055 77.055;"
	 xml:space="preserve">
<g>
	<g>
		<g>
			<path d="M48.381,35.168c0-5.601-4.479-9.855-9.854-9.855c-5.601,0-9.856,4.479-9.856,9.855c0,4.256,2.688,7.84,6.496,9.184
				l-12.32,32.703h15.681V35.168l-0.896,2.464c-0.896-0.447-1.792-1.345-1.792-2.464c0-1.345,1.12-2.688,2.688-2.688
				c1.345,0,2.688,1.12,2.688,2.688c0,1.119-0.672,2.017-1.791,2.464l2.463,6.943C45.695,43.008,48.381,39.424,48.381,35.168z"/>
			<path d="M61.151,35.168c0-12.319-10.08-22.625-22.624-22.625c-12.32,0-22.624,10.08-22.624,22.625
				c0,9.631,6.048,17.92,14.56,21.055l2.464-6.942c-5.823-2.24-9.855-7.615-9.855-14.11c0-8.289,6.72-15.232,15.231-15.232
				c8.288,0,15.231,6.72,15.231,15.232c0,6.495-4.031,12.096-9.854,14.11l2.465,6.942C54.879,53.088,61.151,44.799,61.151,35.168z"
				/>
			<path d="M38.527,0C19.263,0,3.359,15.68,3.359,35.168c0,15.008,9.408,27.775,22.848,32.928l2.464-6.943
				C18.145,57.12,10.751,47.04,10.751,35.17c0-15.232,12.544-27.776,27.776-27.776c15.23,0,27.773,12.544,27.773,27.776
				c0,11.87-7.613,21.95-17.92,25.982l2.466,6.943c13.217-4.928,22.849-17.92,22.849-32.928C73.695,15.68,57.791,0,38.527,0z"/>
		</g>
	</g>
</g>
<g>
</g>
<g>
</g>
<g>
</g>
<g>
</g>
<g>
</g>
<g>
</g>
<g>
</g>
<g>
</g>
<g>
</g>
<g>
</g>
<g>
</g>
<g>
</g>
<g>
</g>
<g>
</g>
<g>
</g>
</svg>
